<svg width="54" height="54" viewBox="0 0 54 54" fill="none" xmlns="http://www.w3.org/2000/svg">
<path d="M48.13 23.88C45.2186 28.881 41.6577 33.4742 37.54 37.54C24.54 50.54 9.24001 56.25 3.33001 50.34C-2.57998 44.43 3.15001 29.11 16.13 16.13C29.11 3.15001 44.43 -2.57998 50.34 3.33001C53.54 6.53001 53.34 12.49 50.41 19.33" stroke="black" stroke-width="2" stroke-linecap="round" stroke-linejoin="round"/>
<path d="M7.66992 36.59C8.81992 31.31 12.7499 24.68 18.6699 18.72C28.4699 8.92004 40.0399 4.61004 44.5299 9.10004C49.0199 13.59 44.7499 25.16 34.9999 35C25.2499 44.84 13.5799 49.06 9.08992 44.58C8.52256 44.0127 8.08277 43.3309 7.79992 42.58" stroke="black" stroke-width="2" stroke-linecap="round" stroke-linejoin="round"/>
<path d="M34.3798 14.26C35.0786 14.1079 35.803 14.119 36.4967 14.2924C37.1905 14.4658 37.8349 14.7969 38.3798 15.26C41.1898 18.07 38.2898 25.53 31.8998 31.92C25.5098 38.31 18.0498 41.21 15.2398 38.4C12.4298 35.59 15.3298 28.13 21.7198 21.74C23.9172 19.5039 26.4265 17.5974 29.1698 16.08" stroke="black" stroke-width="2" stroke-linecap="round" stroke-linejoin="round"/>
<path d="M28.9513 28.9654C30.209 27.7082 30.279 25.739 29.1076 24.5673C27.9363 23.3955 25.9671 23.4648 24.7094 24.722C23.4517 25.9793 23.3817 27.9484 24.5531 29.1202C25.7244 30.292 27.6936 30.2227 28.9513 28.9654Z" stroke="black" stroke-width="2" stroke-linecap="round" stroke-linejoin="round"/>
<path d="M9.07314 41.0195C10.0494 40.0432 10.1033 38.5141 9.19335 37.6042C8.28342 36.6943 6.75433 36.7481 5.77802 37.7244C4.80171 38.7007 4.74789 40.2298 5.65781 41.1397C6.56773 42.0497 8.09683 41.9958 9.07314 41.0195Z" stroke="black" stroke-width="2" stroke-linecap="round" stroke-linejoin="round"/>
<path d="M51.0438 23.386C52.0202 22.4097 52.074 20.8806 51.164 19.9707C50.2541 19.0607 48.725 19.1146 47.7487 20.0909C46.7724 21.0672 46.7186 22.5963 47.6285 23.5062C48.5384 24.4161 50.0675 24.3623 51.0438 23.386Z" stroke="black" stroke-width="2" stroke-linecap="round" stroke-linejoin="round"/>
<path d="M33.42 13.3599C33.5879 13.5292 33.7264 13.7252 33.83 13.9399C34.0467 14.4106 34.1111 14.9372 34.0143 15.4463C33.9175 15.9554 33.6643 16.4216 33.29 16.7799C32.8524 17.2493 32.2462 17.5256 31.6048 17.5481C30.9635 17.5706 30.3395 17.3375 29.87 16.8999C29.5979 16.6222 29.4046 16.2771 29.31 15.8999C29.2057 15.4729 29.2145 15.026 29.3355 14.6034C29.4565 14.1808 29.6855 13.7971 30 13.4899C30.216 13.2568 30.4758 13.0685 30.7646 12.9359C31.0534 12.8032 31.3655 12.7287 31.6831 12.7166C32.0006 12.7045 32.3175 12.7551 32.6155 12.8655C32.9135 12.9759 33.1869 13.1439 33.42 13.3599Z" stroke="black" stroke-width="2" stroke-linecap="round" stroke-linejoin="round"/>
</svg>
