<svg width="73" height="73" viewBox="0 0 73 73" fill="none" xmlns="http://www.w3.org/2000/svg">
<path d="M12.5 0V6.5V34V36.5C12.5029 37.1714 12.8545 53 36.5 53C60.1455 53 60.4971 37.1714 60.5 36.4976V34V6.5V0H36.5H12.5ZM37.3965 6.05762L42.4932 16.3833L53.8887 18.0391C54.2656 18.0938 54.5781 18.3579 54.6963 18.7197C54.8135 19.082 54.7158 19.479 54.4434 19.7451L46.1963 27.7827L48.1436 39.1323C48.208 39.5073 48.0537 39.8867 47.7461 40.1104C47.5723 40.2368 47.3652 40.3013 47.1582 40.3013C46.999 40.3013 46.8389 40.2632 46.6934 40.1865L36.5 34.8281L26.3066 40.1865C25.9717 40.3638 25.5615 40.335 25.2539 40.1104C24.9463 39.8867 24.792 39.5073 24.8564 39.1323L26.8037 27.7827L18.5566 19.7451C18.2842 19.479 18.1865 19.082 18.3037 18.7197C18.4219 18.3579 18.7344 18.0938 19.1113 18.0391L30.5068 16.3833L35.6035 6.05762C35.9395 5.375 37.0605 5.375 37.3965 6.05762Z" fill="black"/>
<path d="M62.5 32.9694C72.876 32.3415 73 21.9555 73 21.5V7.5H62.5V32.9694Z" fill="black"/>
<path d="M32.0674 17.7397C31.9219 18.0352 31.6406 18.2397 31.3145 18.2871L21.4043 19.7271L28.5762 26.7173C28.8115 26.9473 28.9189 27.2783 28.8633 27.6025L27.1699 37.4731L36.0352 32.813C36.1807 32.7363 36.3398 32.6982 36.5 32.6982C36.6602 32.6982 36.8193 32.7363 36.9648 32.813L45.8301 37.4731L44.1367 27.6025C44.0811 27.2783 44.1885 26.9473 44.4238 26.7173L51.5957 19.7271L41.6855 18.2871C41.3594 18.2397 41.0781 18.0352 40.9326 17.7397L36.5 8.75928L32.0674 17.7397Z" fill="black"/>
<path d="M36.5 70H31.7363L25.7363 73H36.5H47.2637L41.2637 70H36.5Z" fill="black"/>
<path d="M0 21.5C0.0019531 21.9536 0.160645 32.3393 10.5 32.9692V7.5H0V21.5Z" fill="black"/>
<path d="M40.5 68V54.8311C39.2363 54.9358 37.9131 55 36.5 55C35.0869 55 33.7637 54.9358 32.5 54.8311V68H36.5H40.5Z" fill="black"/>
</svg>
