<svg width="984" height="928" viewBox="0 0 984 928" fill="none" xmlns="http://www.w3.org/2000/svg">
  <path d="M728 122.3V413L492 515.1V224.2L728 122.3Z" fill="black"/>
  <path d="M708 122.3C708 155 708 187.7 708 220.4C708 272.6 708 324.7 708 376.9C708 388.9 708 400.9 708 413C711.3 407.2 714.6 401.5 717.9 395.7C691.2 407.2 664.6 418.8 637.9 430.3C595.7 448.6 553.6 466.8 511.4 485.1C501.6 489.3 491.9 493.5 482.1 497.8C492.1 503.6 502.2 509.3 512.2 515.1C512.2 482.2 512.2 449.3 512.2 416.3C512.2 364.2 512.2 312.2 512.2 260.1C512.2 248.1 512.2 236.1 512.2 224.2C508.9 230 505.6 235.7 502.3 241.5C529 230 555.6 218.5 582.3 206.9C624.5 188.7 666.6 170.5 708.8 152.3C718.6 148.1 728.3 143.9 738.1 139.7C747.7 135.5 750.6 120.7 745.3 112.3C738.8 102.3 728.3 100.7 717.9 105.1C691.2 116.6 664.6 128.1 637.9 139.7C595.7 157.9 553.6 176.1 511.4 194.3C501.6 198.5 491.9 202.7 482.1 206.9C475.9 209.6 472.2 217.8 472.2 224.2C472.2 257.1 472.2 290 472.2 323C472.2 375.1 472.2 427.1 472.2 479.2C472.2 491.2 472.2 503.2 472.2 515.1C472.2 522.2 476 528.8 482.1 532.4C488.8 536.3 495.5 535.3 502.3 532.4C529 520.9 555.6 509.3 582.3 497.8C624.5 479.5 666.6 461.3 708.8 443C718.6 438.8 728.3 434.6 738.1 430.3C744.3 427.6 748 419.4 748 413C748 380.3 748 347.6 748 314.9C748 262.7 748 210.6 748 158.4C748 146.4 748 134.4 748 122.3C748 111.8 738.8 101.8 728 102.3C717.2 102.8 708 111.1 708 122.3Z" fill="black"/>
  <path d="M472.3 224.2C472.3 257.1 472.3 290 472.3 323C472.3 375.1 472.3 427.1 472.3 479.2C472.3 491.2 472.3 503.2 472.3 515.1C482.3 509.3 492.4 503.6 502.4 497.8C475.9 486.3 449.5 474.9 423 463.4C380.6 445 338.3 426.7 295.9 408.3C286.2 404.1 276.5 399.9 266.8 395.7C270.1 401.5 273.4 407.2 276.7 413C276.7 380.3 276.7 347.6 276.7 314.9C276.7 262.8 276.7 210.6 276.7 158.5C276.7 146.5 276.7 134.5 276.7 122.4C266.7 128.2 256.6 133.9 246.6 139.7C273.1 151.1 299.5 162.6 326 174C368.4 192.3 410.7 210.6 453.1 228.9C462.8 233.1 472.5 237.3 482.2 241.5C487.3 243.7 492 245.1 497.6 243.5C502.2 242.2 507.3 238.6 509.6 234.3C514.2 225.7 512.7 211.4 502.4 206.9C475.9 195.5 449.5 184 423 172.6C380.6 154.3 338.3 136 295.9 117.7C286.2 113.5 276.5 109.3 266.8 105.1C260 102.2 253.4 101.2 246.6 105.1C240.5 108.7 236.7 115.3 236.7 122.4C236.7 155.1 236.7 187.8 236.7 220.5C236.7 272.6 236.7 324.8 236.7 376.9C236.7 388.9 236.7 400.9 236.7 413C236.7 419.4 240.4 427.6 246.6 430.3C273.1 441.8 299.5 453.2 326 464.7C368.4 483.1 410.7 501.4 453.1 519.8C462.8 524 472.5 528.2 482.2 532.4C489 535.3 495.6 536.3 502.4 532.4C508.5 528.8 512.3 522.2 512.3 515.1C512.3 482.2 512.3 449.3 512.3 416.3C512.3 364.2 512.3 312.2 512.3 260.1C512.3 248.1 512.3 236.1 512.3 224.2C512.3 213.7 503.1 203.7 492.3 204.2C481.5 204.7 472.3 213 472.3 224.2Z" fill="black"/>
  <path d="M727.9 121.9L492 20.3V20.1L257 121.9V122L492.3 224.2L727.9 121.9Z" fill="black"/>
  <path d="M738.1 104.7C711.4 93.1999 684.8 81.6999 658.1 70.1999C616 51.9999 573.8 33.7999 531.7 15.6999C521.9 11.4999 512.2 7.29994 502.4 3.09994C505.7 8.89994 509 14.5999 512.3 20.3999C512.3 20.2999 512.3 20.2999 512.3 20.1999C512.3 13.0999 508.5 6.49994 502.4 2.89995C495.7 -1.00006 489 -5.50747e-05 482.2 2.89995C455.7 14.2999 429.3 25.7999 402.8 37.1999C360.4 55.4999 318.1 73.8 275.7 92.1C266 96.3 256.3 100.5 246.6 104.7C240.4 107.4 236.7 115.6 236.7 122V122.1C236.7 128.5 240.4 136.7 246.6 139.4C273.5 151.1 300.5 162.8 327.4 174.4C369.6 192.7 411.9 211 454.1 229.4C463.4 233.4 472.6 237.5 481.9 241.4C489.5 244.7 495.2 244.6 502.6 241.4C503.6 241 504.6 240.5 505.6 240.1C510.3 238 515.1 236 519.8 233.9C560.2 216.4 600.7 198.8 641.1 181.3C672.8 167.5 704.9 154.4 736.3 140C736.8 139.7 737.4 139.5 738 139.3C747.6 135.1 750.5 120.3 745.2 111.9C738.8 101.9 728.1 100.3 717.8 104.7C691.1 116.3 664.5 127.8 637.8 139.4C595.6 157.7 553.5 176 511.3 194.3C501.5 198.5 491.8 202.8 482 207C488.7 207 495.5 207 502.2 207C475.6 195.4 448.9 183.9 422.3 172.3C380.2 154 338.1 135.8 296 117.5C286.3 113.3 276.5 109 266.8 104.8C270.1 110.6 273.4 116.3 276.7 122.1V122C273.4 127.8 270.1 133.5 266.8 139.3C293.3 127.9 319.7 116.4 346.2 105C388.6 86.6999 430.9 68.3999 473.3 50.0999C483 45.8999 492.7 41.6999 502.4 37.4999C492.4 31.6999 482.3 25.9999 472.3 20.1999C472.3 20.2999 472.3 20.2999 472.3 20.3999C472.3 26.7999 476 34.9999 482.2 37.6999C508.9 49.1999 535.5 60.6999 562.2 72.1999C604.4 90.3999 646.5 108.5 688.7 126.7C698.5 130.9 708.2 135.1 718 139.3C723.1 141.5 727.8 142.9 733.4 141.3C738 140 743.1 136.4 745.4 132.1C749.9 123.4 748.4 109.1 738.1 104.7Z" fill="black"/>
  <path d="M236.7 617.2C236.7 650.1 236.7 683 236.7 715.9C236.7 767.9 236.7 819.9 236.7 872C236.7 884 236.7 895.9 236.7 907.9C246.7 902.1 256.8 896.4 266.8 890.6C240.1 879.1 213.4 867.5 186.8 856C144.6 837.8 102.4 819.5 60.3 801.3C50.5 797.1 40.8 792.9 31 788.6C34.3 794.4 37.6 800.1 40.9 805.9C40.9 773 40.9 740.1 40.9 707.2C40.9 655.2 40.9 603.1 40.9 551.1C40.9 539.1 40.9 527.1 40.9 515.2C30.9 521 20.8 526.7 10.8 532.5C37.5 544 64.2 555.6 90.8 567.1C133 585.4 175.2 603.6 217.3 621.9C227.1 626.1 236.8 630.3 246.6 634.6C251.7 636.8 256.4 638.2 262 636.6C266.6 635.3 271.7 631.7 274 627.4C278.6 618.8 277.1 604.5 266.8 600C240.1 588.5 213.4 576.9 186.8 565.4C144.6 547.1 102.4 528.9 60.3 510.6C50.5 506.4 40.8 502.2 31 497.9C24.2 495 17.6 494 10.8 497.9C4.70002 501.5 0.900024 508.1 0.900024 515.2C0.900024 548.1 0.900024 581 0.900024 613.9C0.900024 665.9 0.900024 718 0.900024 770C0.900024 782 0.900024 794 0.900024 805.9C0.900024 812.3 4.60002 820.5 10.8 823.2C37.5 834.7 64.2 846.3 90.8 857.8C133 876 175.2 894.3 217.3 912.5C227.1 916.7 236.8 920.9 246.6 925.2C253.4 928.1 260 929.1 266.8 925.2C272.9 921.6 276.7 915 276.7 907.9C276.7 875 276.7 842.1 276.7 809.2C276.7 757.2 276.7 705.2 276.7 653.1C276.7 641.1 276.7 629.2 276.7 617.2C276.7 606.7 267.5 596.7 256.7 597.2C245.9 597.7 236.7 606 236.7 617.2Z" fill="black"/>
  <path d="M492 515.1V805.9L257 907.9V617.2L492 515.1Z" fill="black"/>
  <path d="M472.3 515.1C472.3 548 472.3 580.9 472.3 613.8C472.3 665.8 472.3 717.9 472.3 769.9C472.3 781.9 472.3 793.9 472.3 805.8C475.6 800 478.9 794.3 482.2 788.5C455.5 800 428.9 811.6 402.2 823.1C360.1 841.3 317.9 859.6 275.8 877.8C266.1 882 256.3 886.2 246.6 890.5C256.6 896.3 266.7 902 276.7 907.8C276.7 874.9 276.7 842 276.7 809.1C276.7 757.1 276.7 705.1 276.7 653C276.7 641 276.7 629.1 276.7 617.1C273.4 622.9 270.1 628.6 266.8 634.4C293.5 622.8 320.1 611.3 346.8 599.7C388.9 581.4 431.1 563.2 473.2 544.9C482.9 540.7 492.7 536.5 502.4 532.2C512 528 514.9 513.2 509.6 504.8C503.2 494.8 492.5 493.2 482.2 497.6C455.5 509.2 428.9 520.7 402.2 532.3C360.1 550.6 317.9 568.8 275.8 587.1C266.1 591.3 256.3 595.5 246.6 599.8C240.4 602.5 236.7 610.7 236.7 617.1C236.7 650 236.7 682.9 236.7 715.8C236.7 767.8 236.7 819.8 236.7 871.9C236.7 883.9 236.7 895.8 236.7 907.8C236.7 914.9 240.5 921.5 246.6 925.1C253.3 929 260 928 266.8 925.1C293.5 913.6 320.1 902 346.8 890.5C388.9 872.3 431.1 854 473.2 835.8C482.9 831.6 492.7 827.4 502.4 823.1C508.6 820.4 512.3 812.2 512.3 805.8C512.3 772.9 512.3 740 512.3 707.1C512.3 655.1 512.3 603 512.3 551C512.3 539 512.3 527 512.3 515.1C512.3 504.6 503.1 494.6 492.3 495.1C481.5 495.5 472.3 503.8 472.3 515.1Z" fill="black"/>
  <path d="M492.3 515.1L256.7 617.2L20.7999 515.1L256.8 413L492.3 515.1Z" fill="black"/>
  <path d="M482.2 497.8C455.5 509.4 428.9 520.9 402.2 532.5C360.1 550.8 317.9 569 275.8 587.3C266.1 591.5 256.3 595.7 246.6 600C253.3 600 260.1 600 266.8 600C240.1 588.5 213.4 576.9 186.8 565.4C144.6 547.1 102.4 528.9 60.3 510.6C50.5 506.4 40.8 502.2 31 497.9C31 509.4 31 520.9 31 532.4C57.7 520.8 84.4 509.3 111.1 497.7C153.3 479.4 195.5 461.2 237.7 442.9C247.5 438.7 257.2 434.4 267 430.2C260.3 430.2 253.5 430.2 246.8 430.2C273.3 441.7 299.7 453.1 326.2 464.6C368.6 483 410.9 501.3 453.3 519.7C463 523.9 472.7 528.1 482.4 532.3C492 536.4 504.3 535.5 509.8 525.1C514.4 516.5 512.9 502.2 502.6 497.7C475.7 486 448.8 474.4 421.9 462.7C379.5 444.3 337 425.9 294.6 407.5C285.5 403.6 276.4 399.6 267.3 395.7C259.5 392.3 254.2 392.5 246.6 395.7C245.6 396.1 244.6 396.6 243.6 397C238.8 399.1 233.9 401.2 229.1 403.3C188.7 420.8 148.3 438.3 107.9 455.7C76.1 469.4 44 482.5 12.6 497C12.1 497.3 11.5 497.5 10.9 497.7C-2.20005 503.4 -2.20005 526.6 10.9 532.2C37.9 543.9 64.8 555.5 91.8 567.2C134.1 585.5 176.4 603.8 218.7 622.1C228 626.1 237.2 630.1 246.5 634.1C254.1 637.4 259.8 637.3 267.2 634.1C268.2 633.7 269.2 633.2 270.2 632.8C274.9 630.7 279.7 628.7 284.4 626.6C324.8 609.1 365.2 591.6 405.6 574.1C437.3 560.4 469.4 547.3 500.8 532.8C501.3 532.5 501.9 532.3 502.5 532.1C512.1 527.9 515 513.1 509.7 504.7C503.1 495 492.5 493.3 482.2 497.8Z" fill="black"/>
  <path d="M707.7 617.2C707.7 650.1 707.7 683 707.7 715.9C707.7 767.9 707.7 819.9 707.7 872C707.7 884 707.7 895.9 707.7 907.9C717.7 902.1 727.8 896.4 737.8 890.6C711.3 879.1 684.9 867.7 658.4 856.2C616.1 837.9 573.7 819.5 531.4 801.2C521.7 797 512 792.8 502.4 788.6C505.7 794.4 509 800.1 512.3 805.9C512.3 773 512.3 740.1 512.3 707.2C512.3 655.2 512.3 603.1 512.3 551.1C512.3 539.1 512.3 527.1 512.3 515.2C502.3 521 492.2 526.7 482.2 532.5C508.7 544 535.1 555.5 561.6 566.9C603.9 585.3 646.3 603.6 688.6 622C698.3 626.2 708 630.4 717.6 634.6C727.2 638.8 739.5 637.7 745 627.4C749.6 618.8 748.1 604.5 737.8 600C711.3 588.5 684.9 577 658.4 565.6C616.1 547.2 573.7 528.9 531.4 510.5C521.7 506.3 512 502.1 502.4 497.9C495.6 495 488.9 494 482.2 497.9C476.1 501.5 472.3 508.1 472.3 515.2C472.3 548.1 472.3 581 472.3 613.9C472.3 665.9 472.3 718 472.3 770C472.3 782 472.3 794 472.3 805.9C472.3 812.3 476 820.5 482.2 823.2C508.7 834.7 535.1 846.1 561.6 857.6C603.9 875.9 646.3 894.3 688.6 912.6C698.3 916.8 708 921 717.6 925.2C724.4 928.1 731 929.1 737.8 925.2C743.9 921.6 747.7 915 747.7 907.9C747.7 875 747.7 842.1 747.7 809.2C747.7 757.2 747.7 705.2 747.7 653.1C747.7 641.1 747.7 629.2 747.7 617.2C747.7 606.7 738.5 596.7 727.7 597.2C716.9 597.7 707.7 606 707.7 617.2Z" fill="black"/>
  <path d="M963 515.1V805.9L728 907.9V617.2L963 515.1Z" fill="black"/>
  <path d="M943.2 515.1C943.2 548 943.2 580.9 943.2 613.8C943.2 665.8 943.2 717.9 943.2 769.9C943.2 781.9 943.2 793.9 943.2 805.8C946.5 800 949.8 794.3 953.1 788.5C926.6 800 900.2 811.4 873.7 822.9C831.4 841.2 789 859.6 746.7 877.9C737 882.1 727.3 886.3 717.7 890.5C727.7 896.3 737.8 902 747.8 907.8C747.8 874.9 747.8 842 747.8 809.1C747.8 757.1 747.8 705.1 747.8 653C747.8 641 747.8 629.1 747.8 617.1C744.5 622.9 741.2 628.6 737.9 634.4C764.4 622.9 790.8 611.5 817.3 600C859.6 581.6 902 563.3 944.3 544.9C954 540.7 963.7 536.5 973.3 532.3C982.9 528.1 985.8 513.3 980.5 504.9C974.1 494.9 963.4 493.3 953.1 497.7C926.6 509.2 900.2 520.6 873.7 532.1C831.4 550.5 789 568.8 746.7 587.2C737 591.4 727.3 595.6 717.7 599.8C711.5 602.5 707.8 610.7 707.8 617.1C707.8 650 707.8 682.9 707.8 715.8C707.8 767.8 707.8 819.8 707.8 871.9C707.8 883.9 707.8 895.8 707.8 907.8C707.8 914.9 711.6 921.5 717.7 925.1C724.4 929 731.1 928 737.9 925.1C764.4 913.6 790.8 902.2 817.3 890.7C859.6 872.4 902 854 944.3 835.7C954 831.5 963.7 827.3 973.3 823.1C979.5 820.4 983.2 812.2 983.2 805.8C983.2 772.9 983.2 740 983.2 707.1C983.2 655.1 983.2 603 983.2 551C983.2 539 983.2 527 983.2 515.1C983.2 504.6 974 494.6 963.2 495.1C952.3 495.6 943.2 503.9 943.2 515.1Z" fill="black"/>
  <path d="M963.2 515.1L727.7 617.2L492.3 515.1L728 413L963.2 515.1Z" fill="black"/>
  <path d="M953.1 497.9C926.6 509.4 900.2 520.8 873.7 532.3C831.4 550.7 789 569 746.7 587.4C737 591.6 727.3 595.8 717.7 600C724.4 600 731.2 600 737.9 600C711.4 588.5 685 577 658.5 565.6C616.2 547.2 573.8 528.9 531.5 510.5C521.8 506.3 512.1 502.1 502.5 497.9C502.5 509.4 502.5 520.9 502.5 532.4C529.2 520.9 555.8 509.3 582.5 497.8C624.7 479.5 666.8 461.3 709 443C718.8 438.8 728.5 434.6 738.3 430.3C731.6 430.3 724.8 430.3 718.1 430.3C744.5 441.8 770.9 453.3 797.4 464.7C839.7 483.1 882 501.4 924.2 519.8C933.9 524 943.5 528.2 953.2 532.4C962.8 536.6 975.1 535.5 980.6 525.2C985.2 516.6 983.7 502.3 973.4 497.8C946.5 486.1 919.7 474.5 892.8 462.8C850.4 444.4 808.1 426 765.7 407.6C756.6 403.7 747.6 399.7 738.5 395.8C730.7 392.4 725.4 392.6 717.8 395.8C716.8 396.2 715.8 396.7 714.8 397.1C710 399.2 705.1 401.3 700.3 403.4C660 420.9 619.6 438.3 579.3 455.8C547.6 469.5 515.5 482.6 484.1 497C483.6 497.3 483 497.5 482.4 497.7C469.3 503.4 469.3 526.6 482.4 532.2C509.1 543.8 535.9 555.4 562.6 567C605 585.4 647.3 603.7 689.7 622.1C699 626.1 708.3 630.2 717.6 634.2C725.2 637.5 730.9 637.4 738.3 634.2C739.3 633.8 740.2 633.4 741.2 632.9C745.9 630.9 750.6 628.8 755.4 626.8C795.7 609.3 836 591.9 876.3 574.4C908.1 560.6 940.3 547.5 971.8 533C972.3 532.7 972.9 532.5 973.5 532.3C983.1 528.1 986 513.3 980.7 504.9C974 495 963.4 493.4 953.1 497.9Z" fill="black"/>
</svg>
